<svg width="105" height="35" viewBox="0 0 105 35" fill="none" xmlns="http://www.w3.org/2000/svg">
<g clip-path="url(#clip0_2889_744)">
<path d="M96.3679 0.00011375H8.34285C8.02198 0.00011375 7.70497 0.00011375 7.38496 0.00186375C7.11707 0.00361375 6.85133 0.0086975 6.58087 0.0129762C5.99332 0.0198903 5.40716 0.0715805 4.82746 0.167598C4.24858 0.265705 3.68784 0.450665 3.16419 0.716222C2.64119 0.984026 2.1633 1.33201 1.74787 1.74755C1.33026 2.16192 0.982155 2.64088 0.716931 3.166C0.450975 3.69008 0.26656 4.25169 0.170056 4.83141C0.0726346 5.4104 0.0202111 5.99607 0.0132563 6.58316C0.00513625 6.85143 0.00427875 7.1206 0 7.38891V27.6139C0.00427875 27.8856 0.00513625 28.1488 0.0132563 28.4206C0.0202132 29.0076 0.0726367 29.5932 0.170056 30.1722C0.266294 30.7523 0.45072 31.3142 0.716931 31.8385C0.982035 32.3619 1.33019 32.8389 1.74787 33.251C2.16173 33.6684 2.63992 34.0166 3.16419 34.2824C3.68783 34.5486 4.24852 34.7347 4.82746 34.8343C5.40725 34.9295 5.99336 34.9813 6.58087 34.989C6.85133 34.995 7.11707 34.9984 7.38496 34.9984C7.70496 35.0001 8.022 35.0001 8.34285 35.0001H96.3679C96.6824 35.0001 97.002 35.0001 97.3164 34.9984C97.583 34.9984 97.8565 34.995 98.1231 34.989C98.7095 34.9817 99.2945 34.93 99.8731 34.8343C100.454 34.734 101.017 34.548 101.543 34.2824C102.067 34.0164 102.544 33.6682 102.958 33.251C103.374 32.8373 103.723 32.3606 103.992 31.8385C104.256 31.3138 104.439 30.7519 104.533 30.1722C104.631 29.5932 104.685 29.0077 104.696 28.4206C104.699 28.1488 104.699 27.8856 104.699 27.6139C104.706 27.296 104.706 26.9799 104.706 26.6568V8.34423C104.706 8.02379 104.706 7.70592 104.699 7.38891C104.699 7.1206 104.699 6.85143 104.696 6.58312C104.685 5.99598 104.631 5.41045 104.533 4.83137C104.438 4.25199 104.256 3.69043 103.992 3.16597C103.452 2.11341 102.595 1.25664 101.543 0.716144C101.017 0.451235 100.454 0.266324 99.8731 0.167519C99.2946 0.0710787 98.7095 0.0193705 98.1231 0.0128537C97.8565 0.00858375 97.583 0.00345625 97.3164 0.00175C97.002 0 96.6824 0 96.3679 0V0.00011375Z" fill="#A6A6A6"/>
<path d="M7.38926 34.2344C7.12266 34.2344 6.86251 34.231 6.598 34.225C6.05006 34.2179 5.5034 34.1702 4.96251 34.0823C4.45815 33.9954 3.96956 33.8339 3.51286 33.6029C3.06035 33.3738 2.64762 33.0735 2.29048 32.7134C1.92818 32.3575 1.62655 31.9447 1.39754 31.4914C1.166 31.0352 1.00577 30.5462 0.922414 30.0414C0.832397 29.499 0.783695 28.9505 0.776726 28.4008C0.771179 28.2162 0.763916 27.6018 0.763916 27.6018V7.3888C0.763916 7.3888 0.771651 6.78381 0.77677 6.60608C0.783442 6.05717 0.831862 5.50957 0.921609 4.96801C1.00512 4.46184 1.16548 3.97141 1.39714 3.51368C1.62531 3.0607 1.92526 2.64763 2.28538 2.29047C2.6451 1.92992 3.05915 1.62803 3.51243 1.39581C3.96808 1.16558 4.45575 1.00514 4.95909 0.919861C5.50176 0.831107 6.05032 0.783122 6.60016 0.776309L7.38969 0.765625H97.3122L98.1111 0.776738C98.656 0.783212 99.1995 0.830769 99.7372 0.919004C100.246 1.00535 100.738 1.16691 101.199 1.39837C102.107 1.86636 102.846 2.60677 103.312 3.51581C103.54 3.97038 103.698 4.45682 103.781 4.95862C103.872 5.50462 103.922 6.05652 103.933 6.60993C103.935 6.85773 103.935 7.1239 103.935 7.3888C103.942 7.71692 103.942 8.02924 103.942 8.34411V26.6567C103.942 26.9746 103.942 27.2848 103.935 27.5975C103.935 27.8821 103.935 28.1427 103.932 28.411C103.922 28.9545 103.872 29.4966 103.782 30.0328C103.701 30.5412 103.541 31.0341 103.31 31.4941C103.079 31.9424 102.779 32.3516 102.421 32.7065C102.064 33.0686 101.65 33.3707 101.197 33.6012C100.737 33.834 100.245 33.9961 99.7372 34.0823C99.1964 34.1706 98.6497 34.2183 98.1017 34.225C97.8454 34.231 97.577 34.2344 97.3165 34.2344L96.368 34.2361L7.38926 34.2344Z" fill="black"/>
<path d="M21.6727 17.7633C21.6822 17.0329 21.8761 16.3169 22.2367 15.6817C22.5972 15.0464 23.1125 14.5128 23.7347 14.1302C23.3395 13.5657 22.818 13.1011 22.2118 12.7734C21.6056 12.4457 20.9313 12.2638 20.2425 12.2423C18.7731 12.088 17.3487 13.1215 16.5999 13.1215C15.8367 13.1215 14.6839 12.2576 13.4425 12.2831C12.6395 12.3091 11.857 12.5425 11.1711 12.9608C10.4852 13.3791 9.91935 13.968 9.52869 14.67C7.83644 17.5999 9.09871 21.9058 10.7197 24.2741C11.5308 25.4337 12.4786 26.7291 13.7189 26.6832C14.9326 26.6329 15.3859 25.9093 16.8509 25.9093C18.3023 25.9093 18.7276 26.6832 19.993 26.654C21.2954 26.6329 22.1159 25.4892 22.8985 24.3185C23.4812 23.4922 23.9296 22.5789 24.2271 21.6126C23.4705 21.2925 22.8248 20.7569 22.3706 20.0724C21.9163 19.3879 21.6736 18.5848 21.6727 17.7633V17.7633Z" fill="white"/>
<path d="M19.2826 10.6847C19.9927 9.83223 20.3425 8.73657 20.2578 7.63037C19.1729 7.74431 18.1708 8.2628 17.4511 9.08253C17.0993 9.48299 16.8298 9.94887 16.6581 10.4535C16.4863 10.9582 16.4158 11.4918 16.4504 12.0237C16.993 12.0293 17.5298 11.9117 18.0204 11.6798C18.511 11.4478 18.9425 11.1076 19.2826 10.6847Z" fill="white"/>
<path d="M37.0145 23.7472H32.8727L31.8781 26.6841H30.1238L34.0468 15.8184H35.8694L39.7924 26.6841H38.0082L37.0145 23.7472ZM33.3017 22.392H36.5847L34.9663 17.6256H34.921L33.3017 22.392Z" fill="white"/>
<path d="M48.2647 22.7235C48.2647 25.1853 46.9471 26.767 44.9587 26.767C44.455 26.7933 43.9541 26.6773 43.5133 26.4322C43.0724 26.187 42.7095 25.8227 42.4662 25.381H42.4285V29.3048H40.8024V18.7621H42.3764V20.0797H42.4063C42.6609 19.6401 43.0299 19.2776 43.4741 19.031C43.9183 18.7844 44.421 18.6628 44.9288 18.6792C46.9394 18.6792 48.2647 20.2686 48.2647 22.7235ZM46.5933 22.7235C46.5933 21.1196 45.7645 20.0652 44.4998 20.0652C43.2574 20.0652 42.4217 21.1418 42.4217 22.7235C42.4217 24.3197 43.2574 25.3887 44.4998 25.3887C45.7645 25.3887 46.5933 24.3419 46.5933 22.7235Z" fill="white"/>
<path d="M56.9839 22.7235C56.9839 25.1853 55.6663 26.767 53.6779 26.767C53.1742 26.7933 52.6732 26.6773 52.2324 26.4322C51.7916 26.187 51.4287 25.8227 51.1853 25.381H51.1477V29.3048H49.5216V18.7621H51.0956V20.0797H51.1255C51.3801 19.64 51.7491 19.2776 52.1933 19.031C52.6374 18.7844 53.1402 18.6628 53.6479 18.6792C55.6586 18.6792 56.9839 20.2685 56.9839 22.7235ZM55.3125 22.7235C55.3125 21.1196 54.4837 20.0652 53.219 20.0652C51.9766 20.0652 51.1409 21.1418 51.1409 22.7235C51.1409 24.3197 51.9766 25.3887 53.219 25.3887C54.4837 25.3887 55.3125 24.3419 55.3125 22.7235H55.3125Z" fill="white"/>
<path d="M62.7466 23.6567C62.8671 24.7342 63.9139 25.4417 65.3443 25.4417C66.7149 25.4417 67.701 24.7341 67.701 23.7626C67.701 22.9192 67.1063 22.4142 65.6981 22.0681L64.2899 21.7289C62.2946 21.247 61.3683 20.3138 61.3683 18.7997C61.3683 16.9249 63.0021 15.6372 65.3221 15.6372C67.6181 15.6372 69.1921 16.9249 69.2451 18.7997H67.6036C67.5053 17.7153 66.6089 17.0608 65.299 17.0608C63.9891 17.0608 63.0927 17.723 63.0927 18.6869C63.0927 19.4551 63.6652 19.9071 65.0657 20.2531L66.2628 20.5471C68.4922 21.0743 69.4185 21.9698 69.4185 23.5592C69.4185 25.592 67.7992 26.8652 65.2238 26.8652C62.8141 26.8652 61.1872 25.6219 61.0821 23.6566L62.7466 23.6567Z" fill="white"/>
<path d="M72.9279 16.8872V18.762H74.4344V20.0497H72.9279V24.417C72.9279 25.0955 73.2296 25.4116 73.8918 25.4116C74.0706 25.4085 74.2492 25.3959 74.4267 25.374V26.654C74.129 26.7097 73.8263 26.7349 73.5235 26.7292C71.9196 26.7292 71.2941 26.1268 71.2941 24.5904V20.0497H70.1423V18.762H71.2941V16.8872H72.9279Z" fill="white"/>
<path d="M75.3069 22.7234C75.3069 20.2308 76.7749 18.6646 79.0641 18.6646C81.3609 18.6646 82.8221 20.2308 82.8221 22.7234C82.8221 25.2228 81.3686 26.7822 79.0641 26.7822C76.7603 26.7822 75.3069 25.2228 75.3069 22.7234ZM81.1652 22.7234C81.1652 21.0135 80.3817 20.0044 79.064 20.0044C77.7464 20.0044 76.9637 21.0212 76.9637 22.7234C76.9637 24.4401 77.7464 25.4415 79.064 25.4415C80.3817 25.4415 81.1652 24.4401 81.1652 22.7234H81.1652Z" fill="white"/>
<path d="M84.1628 18.762H85.7137V20.1104H85.7513C85.8562 19.6893 86.103 19.3171 86.45 19.0564C86.797 18.7958 87.2231 18.6626 87.6568 18.6791C87.8442 18.6785 88.0311 18.6988 88.214 18.7398V20.2608C87.9774 20.1885 87.7306 20.1553 87.4833 20.1625C87.2471 20.1529 87.0116 20.1946 86.793 20.2846C86.5744 20.3746 86.3778 20.5109 86.2169 20.6841C86.0559 20.8572 85.9343 21.0632 85.8604 21.2877C85.7865 21.5123 85.7621 21.7502 85.7889 21.9851V26.684H84.1628L84.1628 18.762Z" fill="white"/>
<path d="M95.7112 24.3572C95.4925 25.7953 94.092 26.7822 92.3001 26.7822C89.9955 26.7822 88.5651 25.2382 88.5651 22.761C88.5651 20.2761 90.0032 18.6646 92.2317 18.6646C94.4235 18.6646 95.8018 20.1702 95.8018 22.5721V23.1293H90.2066V23.2275C90.1808 23.5191 90.2173 23.8128 90.3137 24.0892C90.4101 24.3655 90.5642 24.6182 90.7658 24.8304C90.9673 25.0427 91.2117 25.2096 91.4828 25.3201C91.7538 25.4306 92.0452 25.4822 92.3377 25.4714C92.722 25.5074 93.1076 25.4184 93.4372 25.2177C93.7668 25.0169 94.0229 24.7151 94.1672 24.3572L95.7112 24.3572ZM90.2143 21.9928H94.1749C94.1895 21.7306 94.1497 21.4683 94.0581 21.2223C93.9665 20.9762 93.8251 20.7517 93.6426 20.5629C93.4601 20.3741 93.2406 20.2251 92.9979 20.1252C92.7551 20.0252 92.4942 19.9765 92.2317 19.9822C91.9669 19.9806 91.7045 20.0315 91.4594 20.1319C91.2144 20.2323 90.9916 20.3802 90.8041 20.5671C90.6165 20.7541 90.4678 20.9763 90.3666 21.221C90.2654 21.4657 90.2136 21.728 90.2143 21.9928V21.9928Z" fill="white"/>
<path d="M33.0979 7.63971C33.4388 7.61525 33.7809 7.66675 34.0995 7.79051C34.4181 7.91426 34.7053 8.10718 34.9403 8.35535C35.1753 8.60352 35.3523 8.90076 35.4585 9.22562C35.5647 9.55048 35.5975 9.89487 35.5546 10.2339C35.5546 11.9019 34.6531 12.8607 33.0979 12.8607H31.212V7.63971H33.0979ZM32.0229 12.1223H33.0073C33.2509 12.1369 33.4947 12.097 33.7209 12.0054C33.9472 11.9139 34.1501 11.7731 34.315 11.5932C34.48 11.4133 34.6027 11.1989 34.6744 10.9656C34.746 10.7323 34.7647 10.486 34.7291 10.2446C34.7621 10.0041 34.7415 9.75931 34.6688 9.52773C34.5961 9.29615 34.473 9.08352 34.3084 8.90508C34.1439 8.72664 33.9419 8.58681 33.717 8.4956C33.492 8.4044 33.2497 8.36407 33.0073 8.37752H32.0229V12.1223Z" fill="white"/>
<path d="M36.4706 10.8886C36.4458 10.6296 36.4754 10.3684 36.5575 10.1216C36.6397 9.87477 36.7724 9.64785 36.9474 9.45536C37.1223 9.26288 37.3356 9.10908 37.5735 9.00384C37.8113 8.8986 38.0686 8.84424 38.3287 8.84424C38.5888 8.84424 38.846 8.8986 39.0839 9.00384C39.3218 9.10908 39.535 9.26288 39.71 9.45536C39.8849 9.64785 40.0177 9.87477 40.0998 10.1216C40.1819 10.3684 40.2115 10.6296 40.1868 10.8886C40.212 11.1478 40.1827 11.4094 40.1008 11.6566C40.019 11.9038 39.8862 12.1311 39.7113 12.324C39.5363 12.5169 39.3229 12.671 39.0847 12.7764C38.8466 12.8819 38.5891 12.9364 38.3287 12.9364C38.0683 12.9364 37.8107 12.8819 37.5726 12.7764C37.3345 12.671 37.1211 12.5169 36.9461 12.324C36.7711 12.1311 36.6384 11.9038 36.5565 11.6566C36.4746 11.4094 36.4453 11.1478 36.4706 10.8886V10.8886ZM39.387 10.8886C39.387 10.0345 39.0033 9.53506 38.33 9.53506C37.6541 9.53506 37.2738 10.0345 37.2738 10.8886C37.2738 11.7495 37.6541 12.2451 38.33 12.2451C39.0033 12.2451 39.387 11.7461 39.387 10.8886H39.387Z" fill="white"/>
<path d="M45.1266 12.8605H44.3199L43.5056 9.95861H43.4441L42.6332 12.8605H41.8342L40.7482 8.92041H41.5369L42.2427 11.9269H42.3008L43.1108 8.92041H43.8568L44.6669 11.9269H44.7284L45.4308 8.92041H46.2084L45.1266 12.8605Z" fill="white"/>
<path d="M47.1218 8.92027H47.8704V9.54618H47.9285C48.027 9.32137 48.1933 9.13292 48.4041 9.00709C48.6148 8.88126 48.8596 8.82432 49.1043 8.84421C49.296 8.8298 49.4885 8.8587 49.6675 8.92879C49.8465 8.99887 50.0075 9.10834 50.1384 9.24908C50.2694 9.38981 50.367 9.55822 50.4241 9.74181C50.4811 9.9254 50.4962 10.1195 50.468 10.3097V12.8603H49.6904V10.5049C49.6904 9.87175 49.4153 9.55686 48.8402 9.55686C48.7101 9.5508 48.5801 9.57295 48.4593 9.62181C48.3385 9.67066 48.2297 9.74505 48.1403 9.83989C48.051 9.93473 47.9832 10.0478 47.9416 10.1713C47.9 10.2947 47.8856 10.4258 47.8994 10.5553V12.8603H47.1218L47.1218 8.92027Z" fill="white"/>
<path d="M51.707 7.38232H52.4846V12.8605H51.707V7.38232Z" fill="white"/>
<path d="M53.5656 10.8886C53.5408 10.6297 53.5704 10.3684 53.6526 10.1216C53.7347 9.8748 53.8675 9.64786 54.0425 9.45537C54.2175 9.26289 54.4307 9.10909 54.6686 9.00385C54.9065 8.8986 55.1637 8.84424 55.4239 8.84424C55.684 8.84424 55.9413 8.8986 56.1791 9.00385C56.417 9.10909 56.6303 9.26289 56.8053 9.45537C56.9802 9.64786 57.113 9.8748 57.1952 10.1216C57.2773 10.3684 57.3069 10.6297 57.2822 10.8886C57.3074 11.1478 57.2781 11.4095 57.1962 11.6567C57.1143 11.9039 56.9815 12.1312 56.8065 12.3241C56.6315 12.5169 56.4181 12.671 56.18 12.7765C55.9418 12.882 55.6843 12.9364 55.4239 12.9364C55.1634 12.9364 54.9059 12.882 54.6678 12.7765C54.4297 12.671 54.2162 12.5169 54.0412 12.3241C53.8662 12.1312 53.7335 11.9039 53.6516 11.6567C53.5696 11.4095 53.5404 11.1478 53.5656 10.8886V10.8886ZM56.4819 10.8886C56.4819 10.0346 56.0983 9.53513 55.4249 9.53513C54.749 9.53513 54.3688 10.0346 54.3688 10.8887C54.3688 11.7496 54.7491 12.2452 55.4249 12.2452C56.0983 12.2451 56.4819 11.7461 56.4819 10.8886H56.4819Z" fill="white"/>
<path d="M58.1008 11.7466C58.1008 11.0373 58.6288 10.6285 59.5662 10.5704L60.6335 10.5088V10.1688C60.6335 9.75262 60.3583 9.51764 59.8268 9.51764C59.3928 9.51764 59.092 9.677 59.0057 9.95557H58.2529C58.3323 9.27881 58.9689 8.84473 59.8627 8.84473C60.8505 8.84473 61.4077 9.33648 61.4077 10.1688V12.8608H60.6591V12.3071H60.5976C60.4727 12.5057 60.2974 12.6677 60.0894 12.7763C59.8815 12.885 59.6485 12.9366 59.4141 12.9258C59.2487 12.943 59.0815 12.9253 58.9234 12.874C58.7652 12.8226 58.6196 12.7387 58.4958 12.6276C58.3721 12.5165 58.273 12.3807 58.205 12.2289C58.1369 12.0772 58.1014 11.9129 58.1008 11.7466V11.7466ZM60.6335 11.4099V11.0805L59.6713 11.142C59.1287 11.1783 58.8826 11.3629 58.8826 11.7103C58.8826 12.0649 59.1902 12.2712 59.6132 12.2712C59.7372 12.2838 59.8624 12.2713 59.9814 12.2344C60.1004 12.1976 60.2108 12.1372 60.306 12.0568C60.4011 11.9765 60.4792 11.8778 60.5355 11.7667C60.5917 11.6555 60.6251 11.5342 60.6335 11.4099V11.4099Z" fill="white"/>
<path d="M62.4296 10.8887C62.4296 9.64375 63.0696 8.85505 64.0651 8.85505C64.3114 8.84371 64.5557 8.90269 64.7697 9.02509C64.9837 9.1475 65.1584 9.32828 65.2734 9.5463H65.3315V7.38232H66.1091V12.8605H65.364V12.238H65.3024C65.1785 12.4545 64.9977 12.6331 64.7796 12.7542C64.5616 12.8754 64.3145 12.9346 64.0651 12.9254C63.0628 12.9254 62.4296 12.1367 62.4296 10.8887ZM63.2329 10.8887C63.2329 11.7244 63.6268 12.2273 64.2856 12.2273C64.941 12.2273 65.346 11.7172 65.346 10.8922C65.346 10.071 64.9367 9.5536 64.2856 9.5536C63.631 9.5536 63.2328 10.0599 63.2328 10.8887H63.2329Z" fill="white"/>
<path d="M69.3262 10.8886C69.3015 10.6296 69.3311 10.3684 69.4132 10.1216C69.4953 9.87477 69.6281 9.64785 69.803 9.45536C69.978 9.26288 70.1912 9.10908 70.4291 9.00384C70.667 8.8986 70.9242 8.84424 71.1843 8.84424C71.4444 8.84424 71.7017 8.8986 71.9395 9.00384C72.1774 9.10908 72.3907 9.26288 72.5656 9.45536C72.7406 9.64785 72.8733 9.87477 72.9555 10.1216C73.0376 10.3684 73.0672 10.6296 73.0424 10.8886C73.0677 11.1478 73.0384 11.4094 72.9565 11.6566C72.8746 11.9038 72.7419 12.1311 72.5669 12.324C72.3919 12.5169 72.1785 12.671 71.9404 12.7764C71.7023 12.8819 71.4447 12.9364 71.1843 12.9364C70.9239 12.9364 70.6664 12.8819 70.4283 12.7764C70.1901 12.671 69.9767 12.5169 69.8017 12.324C69.6268 12.1311 69.494 11.9038 69.4122 11.6566C69.3303 11.4094 69.301 11.1478 69.3262 10.8886V10.8886ZM72.2426 10.8886C72.2426 10.0345 71.8589 9.53506 71.1856 9.53506C70.5097 9.53506 70.1295 10.0345 70.1295 10.8886C70.1295 11.7495 70.5097 12.2451 71.1856 12.2451C71.8589 12.2451 72.2426 11.7461 72.2426 10.8886Z" fill="white"/>
<path d="M74.0858 8.92027H74.8343V9.54618H74.8924C74.991 9.32137 75.1572 9.13292 75.368 9.00709C75.5787 8.88126 75.8235 8.82432 76.0682 8.84421C76.2599 8.8298 76.4524 8.8587 76.6314 8.92879C76.8104 8.99887 76.9714 9.10834 77.1024 9.24908C77.2333 9.38981 77.331 9.55822 77.388 9.74181C77.4451 9.9254 77.4601 10.1195 77.4319 10.3097V12.8603H76.6544V10.5049C76.6544 9.87175 76.3792 9.55686 75.8041 9.55686C75.674 9.5508 75.544 9.57295 75.4232 9.62181C75.3024 9.67066 75.1936 9.74505 75.1043 9.83989C75.0149 9.93473 74.9471 10.0478 74.9055 10.1713C74.8639 10.2947 74.8496 10.4258 74.8633 10.5553V12.8603H74.0858V8.92027Z" fill="white"/>
<path d="M81.8257 7.93945V8.93835H82.6794V9.59333H81.8257V11.6193C81.8257 12.032 81.9958 12.2128 82.3829 12.2128C82.482 12.2125 82.581 12.2065 82.6794 12.1948V12.8425C82.5397 12.8675 82.3983 12.8808 82.2564 12.8823C81.3917 12.8823 81.0473 12.5781 81.0473 11.8184V9.59329H80.4218V8.93832H81.0473V7.93945H81.8257Z" fill="white"/>
<path d="M83.7415 7.38232H84.5123V9.55359H84.5738C84.6772 9.32669 84.848 9.13717 85.063 9.01087C85.2779 8.88456 85.5266 8.82761 85.7752 8.84778C85.9659 8.8374 86.1565 8.86925 86.3335 8.94103C86.5105 9.01282 86.6695 9.12278 86.7991 9.26308C86.9287 9.40337 87.0257 9.57054 87.0833 9.75266C87.1409 9.93478 87.1575 10.1274 87.1321 10.3167V12.8605H86.3537V10.5085C86.3537 9.87915 86.0606 9.56042 85.5112 9.56042C85.3776 9.54946 85.2431 9.56783 85.1173 9.61425C84.9915 9.66067 84.8774 9.73402 84.7829 9.82917C84.6884 9.92431 84.6158 10.039 84.5703 10.1651C84.5247 10.2912 84.5073 10.4257 84.5191 10.5593V12.8605H83.7415L83.7415 7.38232Z" fill="white"/>
<path d="M91.6661 11.7966C91.5604 12.1567 91.3315 12.4682 91.0194 12.6765C90.7073 12.8849 90.3319 12.9769 89.9588 12.9365C89.6992 12.9433 89.4412 12.8936 89.2028 12.7908C88.9644 12.6879 88.7512 12.5344 88.578 12.3409C88.4048 12.1474 88.2758 11.9186 88.2 11.6702C88.1241 11.4219 88.1032 11.16 88.1387 10.9028C88.1042 10.6448 88.1254 10.3823 88.2011 10.1332C88.2768 9.88413 88.4051 9.65421 88.5773 9.45902C88.7496 9.26383 88.9618 9.10793 89.1995 9.00188C89.4373 8.89582 89.695 8.84208 89.9554 8.8443C91.0517 8.8443 91.7131 9.5933 91.7131 10.8306V11.1019H88.9308V11.1455C88.9187 11.29 88.9368 11.4356 88.9842 11.5727C89.0315 11.7099 89.107 11.8356 89.2058 11.9419C89.3046 12.0482 89.4245 12.1326 89.5579 12.1899C89.6912 12.2471 89.8351 12.2758 89.9801 12.2742C90.1661 12.2965 90.3546 12.263 90.5215 12.178C90.6884 12.0929 90.8263 11.9602 90.9175 11.7965L91.6661 11.7966ZM88.9308 10.5268H90.9209C90.9307 10.3946 90.9128 10.2617 90.8682 10.1369C90.8236 10.012 90.7534 9.89781 90.662 9.80168C90.5707 9.70556 90.4603 9.6296 90.3378 9.5787C90.2154 9.5278 90.0836 9.50307 89.9511 9.50611C89.8166 9.50442 89.6831 9.52967 89.5585 9.58037C89.434 9.63107 89.3208 9.7062 89.2257 9.80133C89.1306 9.89645 89.0556 10.0096 89.0049 10.1342C88.9543 10.2588 88.9291 10.3923 88.9308 10.5268H88.9308Z" fill="white"/>
</g>
<defs>
<clipPath id="clip0_2889_744">
<rect width="104.706" height="35" fill="white"/>
</clipPath>
</defs>
</svg>
